<svg width="30" height="29" viewBox="0 0 23 22" fill="none" xmlns="http://www.w3.org/2000/svg">
<g clip-path="url(#clip0_216_534)">
<path d="M1.06236 6.16484H3.02417V18.8053C3.02417 20.5667 4.49376 22 6.29977 22H16.8171C18.6231 22 20.0927 20.5667 20.0927 18.8053V6.16484H21.9376C22.5255 6.16484 23 5.70204 23 5.12873C23 4.55542 22.5255 4.09262 21.9376 4.09262H17.0685V2.02732C17.0685 0.90832 16.1372 0 14.9898 0H8.12702C6.97968 0 6.04835 0.90832 6.04835 2.02732V4.09262H1.06236C0.474519 4.09262 0 4.55542 0 5.12873C0 5.70204 0.474519 6.16484 1.06236 6.16484ZM8.17306 2.07221H14.9438V4.09262H8.17306V2.07221ZM7.1107 6.16484H17.968V18.8053C17.968 19.4235 17.451 19.9278 16.8171 19.9278H6.29977C5.6659 19.9278 5.14888 19.4235 5.14888 18.8053V6.16484H7.1107Z" fill="#C3B0EA"/>
<path d="M13.623 16.9576C14.2108 16.9576 14.6853 16.4948 14.6853 15.9215V9.9639C14.6853 9.39059 14.2108 8.9278 13.623 8.9278C13.0351 8.9278 12.5606 9.39059 12.5606 9.9639V15.9215C12.5606 16.4914 13.0387 16.9576 13.623 16.9576Z" fill="#C3B0EA"/>
<path d="M9.37351 16.9576C9.96135 16.9576 10.4359 16.4948 10.4359 15.9215V9.9639C10.4359 9.39059 9.96135 8.9278 9.37351 8.9278C8.78568 8.9278 8.31116 9.39059 8.31116 9.9639V15.9215C8.31116 16.4914 8.78568 16.9576 9.37351 16.9576Z" fill="#C3B0EA"/>
</g>
<defs>
<clipPath id="clip0_216_534">
<rect width="23" height="22" fill="white"/>
</clipPath>
</defs>
</svg>
