<svg width="48" height="48" viewBox="0 0 48 48" fill="none" xmlns="http://www.w3.org/2000/svg">
<path d="M34.5 15.75H25.5V9.75H42C42.5965 9.74933 43.1684 9.51206 43.5903 9.09025C44.0121 8.66844 44.2493 8.09653 44.25 7.5V1.5H41.25V6.75H24.75C24.1535 6.75067 23.5816 6.98794 23.1597 7.40975C22.7379 7.83156 22.5007 8.40347 22.5 9V15.75H13.5C10.3185 15.7536 7.26835 17.019 5.01869 19.2687C2.76904 21.5183 1.5036 24.5685 1.5 27.75V37.2143C1.50256 39.4774 2.40267 41.647 4.00286 43.2471C5.60305 44.8473 7.77264 45.7474 10.0357 45.75H10.2044C11.4561 45.7517 12.6928 45.4773 13.8263 44.9465C14.9598 44.4156 15.9624 43.6413 16.7625 42.6787L21.7031 36.75H26.262L31.1994 43.1686C32.2864 44.5813 33.7883 45.6183 35.4945 46.1341C37.2007 46.6499 39.0255 46.6186 40.713 46.0446C42.4005 45.4707 43.866 44.3828 44.9039 42.9336C45.9417 41.4845 46.4999 39.7468 46.5 37.9643V27.75C46.4964 24.5685 45.231 21.5183 42.9813 19.2687C40.7317 17.019 37.6815 15.7536 34.5 15.75ZM43.5 37.9643C43.5 39.1204 43.138 40.2474 42.4649 41.1873C41.7918 42.1272 40.8413 42.8328 39.7468 43.205C38.6523 43.5773 37.4687 43.5975 36.3622 43.2629C35.2556 42.9283 34.2815 42.2557 33.5767 41.3393L27.7386 33.75H20.2974L14.4574 40.7582C13.9385 41.3824 13.2884 41.8845 12.5533 42.2288C11.8183 42.573 11.0164 42.751 10.2047 42.75H10.0359C8.56824 42.7484 7.16111 42.1647 6.12326 41.1269C5.08542 40.0891 4.50164 38.682 4.5 37.2143V27.75C4.50268 25.3639 5.45175 23.0762 7.139 21.389C8.82625 19.7018 11.1139 18.7527 13.5 18.75H34.5C36.8861 18.7527 39.1738 19.7018 40.861 21.389C42.5482 23.0762 43.4973 25.3639 43.5 27.75V37.9643Z" fill="#FF0178"/>
<path d="M36.75 23.25H33.75V26.25H36.75V23.25Z" fill="#FF0178"/>
<path d="M36.75 30.75H33.75V33.75H36.75V30.75Z" fill="#FF0178"/>
<path d="M33 27H30V30H33V27Z" fill="#FF0178"/>
<path d="M40.5 27H37.5V30H40.5V27Z" fill="#FF0178"/>
<path d="M14.25 23.25H11.25V27H7.5V30H11.25V33.75H14.25V30H18V27H14.25V23.25Z" fill="#FF0178"/>
</svg>
