<svg width="19" height="22" viewBox="0 0 19 22" fill="none" xmlns="http://www.w3.org/2000/svg">
<path d="M9.42615 0.00462642C9.32878 0.0221264 9.23615 0.0696264 9.16728 0.144626L0.147026 9.64213C-0.0429735 9.83213 -0.0500985 10.1496 0.130401 10.3496C0.310901 10.5496 0.612526 10.5571 0.802526 10.3671C0.807276 10.3621 0.812026 10.3571 0.816776 10.3546L9.51403 1.19213L12.2667 3.87213C12.4614 4.05713 12.7607 4.04213 12.9364 3.83713C13.0148 3.74713 13.0575 3.62713 13.0599 3.50463V2.50463H14.7224V6.50463C14.7224 6.63713 14.7747 6.76213 14.8625 6.85713L18.1852 10.3571C18.368 10.5546 18.6697 10.5596 18.8573 10.3671C19.0449 10.1746 19.0497 9.85713 18.8668 9.65963C18.862 9.65463 18.8573 9.64963 18.8525 9.64713L15.67 6.29713V2.00463C15.67 1.72963 15.4587 1.50463 15.195 1.50463H12.5849C12.3237 1.50463 12.1099 1.72963 12.1099 2.00463V2.36463L9.81803 0.137126C9.71353 0.0321264 9.56865 -0.0178736 9.42378 0.00462642H9.42615ZM9.45465 2.75463C9.34303 2.76463 9.23615 2.81713 9.15778 2.90213L1.3274 11.3996C1.2419 11.4946 1.19203 11.6196 1.1944 11.7521V15.5021C1.18965 15.7771 1.40103 16.0046 1.66228 16.0096C1.92353 16.0146 2.13965 15.7921 2.1444 15.5171C2.1444 15.5121 2.1444 15.5071 2.1444 15.5021V11.9471L9.50215 3.96463L16.8599 11.9471V20.9996H11.6397V15.2521C11.6397 14.9771 11.4283 14.7521 11.1647 14.7521H7.84203C7.58078 14.7521 7.36703 14.9771 7.36703 15.2521V20.9996H2.14203V17.4996C2.14678 17.2246 1.9354 16.9971 1.67415 16.9921C1.4129 16.9871 1.19678 17.2096 1.19203 17.4846C1.19203 17.4896 1.19203 17.4946 1.19203 17.4996V21.4996C1.19203 21.7746 1.4034 21.9996 1.66703 21.9996H7.83728C8.09853 21.9996 8.31228 21.7746 8.31228 21.4996V15.7521H10.6849V21.4996C10.6849 21.7746 10.8963 21.9996 11.1599 21.9996H17.3302C17.5914 21.9996 17.8052 21.7746 17.8052 21.4996V11.7521C17.8052 11.6221 17.7577 11.4946 17.6722 11.3996L9.84178 2.90213C9.74203 2.79463 9.59953 2.73963 9.45703 2.75463H9.45465ZM9.49978 10.0021C8.58778 10.0021 7.83728 10.7921 7.83728 11.7521C7.83728 12.7121 8.58778 13.5021 9.49978 13.5021C10.4118 13.5021 11.1623 12.7121 11.1623 11.7521C11.1623 10.7921 10.4118 10.0021 9.49978 10.0021ZM9.49978 11.0021C9.89878 11.0021 10.2123 11.3321 10.2123 11.7521C10.2123 12.1721 9.89878 12.5021 9.49978 12.5021C9.10078 12.5021 8.78728 12.1721 8.78728 11.7521C8.78728 11.3321 9.10078 11.0021 9.49978 11.0021Z" fill="#C3B0EA"/>
</svg>
