<svg width="23" height="23" viewBox="0 0 23 23" fill="none" xmlns="http://www.w3.org/2000/svg">
<mask id="path-1-inside-1_546_88" fill="white">
<path fill-rule="evenodd" clip-rule="evenodd" d="M11.5 0C17.8378 0 23 5.16222 23 11.5L22.9744 11.517V12.403C22.9574 12.6244 22.77 12.7948 22.5144 12.7948C22.4037 12.7778 22.3015 12.7352 22.2248 12.6415C22.1481 12.5478 22.1141 12.437 22.1226 12.2922V11.5085C22.1226 9.72815 21.6626 7.9563 20.8022 6.38889C18.9281 2.99 15.3504 0.877407 11.4659 0.877407C9.68556 0.877407 7.9137 1.32889 6.33778 2.19778C3.85037 3.56926 2.04444 5.82667 1.25222 8.56111C0.46 11.2956 0.783704 14.1748 2.15519 16.6622L2.64074 17.5396L2.93889 16.577C3.69704 14.1152 5.46889 12.0963 7.82 11.04L8.34815 10.8015L7.96482 10.367C6.40593 8.59519 6.40593 5.92889 7.96482 4.16556C8.85926 3.16037 10.137 2.58111 11.483 2.58111C12.6244 2.58111 13.7233 2.99852 14.5837 3.75667C16.5259 5.46037 16.7133 8.43333 15.0011 10.367L14.6093 10.81L15.1544 11.04C15.7593 11.2956 16.3385 11.6278 16.8667 12.0111C17.0541 12.1559 17.0967 12.42 16.9519 12.6074C16.8752 12.7181 16.7474 12.7778 16.6111 12.7778C16.5174 12.7778 16.4322 12.7437 16.3556 12.6926C15.5974 12.1219 14.7541 11.6959 13.8426 11.4319L13.6807 11.3893L13.5359 11.4574C12.9056 11.7641 12.1985 11.9259 11.4574 11.9259C10.7759 11.9259 10.0859 11.7641 9.46407 11.4659L9.31074 11.3893L9.14889 11.4404C6.05667 12.3774 3.82481 15.0522 3.45852 18.2637L3.43296 18.4511L3.56074 18.5959C5.57963 20.8533 8.46741 22.1481 11.5 22.1481C12.0452 22.1396 12.5989 22.0885 13.1356 22.0033H13.2037C13.4167 22.0033 13.5956 22.1652 13.6296 22.3781C13.6467 22.4974 13.6211 22.6081 13.553 22.7019C13.4848 22.7956 13.3826 22.8552 13.2719 22.8722C12.6841 22.9489 12.0878 23 11.5 23C5.16222 23 0 17.8378 0 11.5C0 5.16222 5.16222 0 11.5 0ZM11.5 3.40741C9.38741 3.40741 7.66667 5.12815 7.66667 7.24074C7.66667 9.35333 9.38741 11.0741 11.5 11.0741C13.6126 11.0741 15.3333 9.35333 15.3333 7.24074C15.3333 5.12815 13.6126 3.40741 11.5 3.40741ZM22.1141 14.5922C22.1652 14.5667 22.2248 14.5581 22.2844 14.5581L22.31 14.5496C22.3952 14.5496 22.4719 14.5752 22.54 14.6178C22.6593 14.703 22.7274 14.8393 22.7274 14.9841V16.6111C22.7359 19.073 21.3985 21.3304 19.2519 22.5059L18.3915 22.9489C18.3319 22.983 18.2637 23 18.2126 23C18.1444 22.9915 18.0848 22.9744 18.0167 22.9404L17.1733 22.5144C14.9926 21.3389 13.6467 19.0815 13.6467 16.6111V14.95C13.6467 14.8989 13.6552 14.8393 13.6807 14.7881C13.7489 14.6263 13.9022 14.5241 14.0726 14.5241C14.1322 14.5241 14.1833 14.5411 14.2344 14.5581C14.6689 14.7541 15.1374 14.8478 15.6144 14.8478C16.4322 14.8478 17.233 14.5581 17.8463 14.0385C17.9315 13.9619 18.0422 13.9278 18.153 13.9278C18.2637 13.9278 18.3659 13.9619 18.4426 14.0215C19.073 14.5667 19.8907 14.8733 20.7341 14.8733C21.2111 14.8733 21.6711 14.7796 22.1141 14.5922ZM21.85 16.6111V16.1V15.6059L21.3559 15.6826C21.143 15.7167 20.9215 15.7337 20.7085 15.7337C19.8822 15.7337 19.073 15.5037 18.383 15.0522L18.153 14.9074L17.923 15.0522C17.233 15.4952 16.4322 15.7337 15.6059 15.7337C15.393 15.7337 15.18 15.7167 14.967 15.6826L14.4815 15.6059V16.6111C14.473 18.7663 15.657 20.7426 17.5567 21.7563L17.9656 21.9778L18.17 22.0885L18.3744 21.9778L18.7833 21.7563C20.683 20.7341 21.85 18.7663 21.85 16.6111Z"/>
</mask>
<path fill-rule="evenodd" clip-rule="evenodd" d="M11.5 0C17.8378 0 23 5.16222 23 11.5L22.9744 11.517V12.403C22.9574 12.6244 22.77 12.7948 22.5144 12.7948C22.4037 12.7778 22.3015 12.7352 22.2248 12.6415C22.1481 12.5478 22.1141 12.437 22.1226 12.2922V11.5085C22.1226 9.72815 21.6626 7.9563 20.8022 6.38889C18.9281 2.99 15.3504 0.877407 11.4659 0.877407C9.68556 0.877407 7.9137 1.32889 6.33778 2.19778C3.85037 3.56926 2.04444 5.82667 1.25222 8.56111C0.46 11.2956 0.783704 14.1748 2.15519 16.6622L2.64074 17.5396L2.93889 16.577C3.69704 14.1152 5.46889 12.0963 7.82 11.04L8.34815 10.8015L7.96482 10.367C6.40593 8.59519 6.40593 5.92889 7.96482 4.16556C8.85926 3.16037 10.137 2.58111 11.483 2.58111C12.6244 2.58111 13.7233 2.99852 14.5837 3.75667C16.5259 5.46037 16.7133 8.43333 15.0011 10.367L14.6093 10.81L15.1544 11.04C15.7593 11.2956 16.3385 11.6278 16.8667 12.0111C17.0541 12.1559 17.0967 12.42 16.9519 12.6074C16.8752 12.7181 16.7474 12.7778 16.6111 12.7778C16.5174 12.7778 16.4322 12.7437 16.3556 12.6926C15.5974 12.1219 14.7541 11.6959 13.8426 11.4319L13.6807 11.3893L13.5359 11.4574C12.9056 11.7641 12.1985 11.9259 11.4574 11.9259C10.7759 11.9259 10.0859 11.7641 9.46407 11.4659L9.31074 11.3893L9.14889 11.4404C6.05667 12.3774 3.82481 15.0522 3.45852 18.2637L3.43296 18.4511L3.56074 18.5959C5.57963 20.8533 8.46741 22.1481 11.5 22.1481C12.0452 22.1396 12.5989 22.0885 13.1356 22.0033H13.2037C13.4167 22.0033 13.5956 22.1652 13.6296 22.3781C13.6467 22.4974 13.6211 22.6081 13.553 22.7019C13.4848 22.7956 13.3826 22.8552 13.2719 22.8722C12.6841 22.9489 12.0878 23 11.5 23C5.16222 23 0 17.8378 0 11.5C0 5.16222 5.16222 0 11.5 0ZM11.5 3.40741C9.38741 3.40741 7.66667 5.12815 7.66667 7.24074C7.66667 9.35333 9.38741 11.0741 11.5 11.0741C13.6126 11.0741 15.3333 9.35333 15.3333 7.24074C15.3333 5.12815 13.6126 3.40741 11.5 3.40741ZM22.1141 14.5922C22.1652 14.5667 22.2248 14.5581 22.2844 14.5581L22.31 14.5496C22.3952 14.5496 22.4719 14.5752 22.54 14.6178C22.6593 14.703 22.7274 14.8393 22.7274 14.9841V16.6111C22.7359 19.073 21.3985 21.3304 19.2519 22.5059L18.3915 22.9489C18.3319 22.983 18.2637 23 18.2126 23C18.1444 22.9915 18.0848 22.9744 18.0167 22.9404L17.1733 22.5144C14.9926 21.3389 13.6467 19.0815 13.6467 16.6111V14.95C13.6467 14.8989 13.6552 14.8393 13.6807 14.7881C13.7489 14.6263 13.9022 14.5241 14.0726 14.5241C14.1322 14.5241 14.1833 14.5411 14.2344 14.5581C14.6689 14.7541 15.1374 14.8478 15.6144 14.8478C16.4322 14.8478 17.233 14.5581 17.8463 14.0385C17.9315 13.9619 18.0422 13.9278 18.153 13.9278C18.2637 13.9278 18.3659 13.9619 18.4426 14.0215C19.073 14.5667 19.8907 14.8733 20.7341 14.8733C21.2111 14.8733 21.6711 14.7796 22.1141 14.5922ZM21.85 16.6111V16.1V15.6059L21.3559 15.6826C21.143 15.7167 20.9215 15.7337 20.7085 15.7337C19.8822 15.7337 19.073 15.5037 18.383 15.0522L18.153 14.9074L17.923 15.0522C17.233 15.4952 16.4322 15.7337 15.6059 15.7337C15.393 15.7337 15.18 15.7167 14.967 15.6826L14.4815 15.6059V16.6111C14.473 18.7663 15.657 20.7426 17.5567 21.7563L17.9656 21.9778L18.17 22.0885L18.3744 21.9778L18.7833 21.7563C20.683 20.7341 21.85 18.7663 21.85 16.6111Z" fill="white"/>
<path d="M23 11.5L23.5547 12.332L24 12.0352V11.5H23ZM22.9744 11.517L22.4197 10.685L21.9744 10.9819V11.517H22.9744ZM22.9744 12.403L23.9715 12.4797L23.9744 12.4414V12.403H22.9744ZM22.5144 12.7948L22.3624 13.7832L22.438 13.7948H22.5144V12.7948ZM22.2248 12.6415L21.4509 13.2747L21.4509 13.2747L22.2248 12.6415ZM22.1226 12.2922L23.1209 12.3509L23.1226 12.3216V12.2922H22.1226ZM20.8022 6.38889L21.6788 5.9077L21.6779 5.90604L20.8022 6.38889ZM6.33778 2.19778L5.85495 1.32206L5.85494 1.32207L6.33778 2.19778ZM2.15519 16.6622L1.27948 17.1451L1.28023 17.1464L2.15519 16.6622ZM2.64074 17.5396L1.76578 18.0238L2.90181 20.0767L3.59597 17.8355L2.64074 17.5396ZM2.93889 16.577L3.89412 16.8729L3.8946 16.8714L2.93889 16.577ZM7.82 11.04L8.22982 11.9522L8.23159 11.9514L7.82 11.04ZM8.34815 10.8015L8.75973 11.7129L9.99406 11.1554L9.09799 10.1399L8.34815 10.8015ZM7.96482 10.367L7.21403 11.0276L7.21498 11.0287L7.96482 10.367ZM7.96482 4.16556L7.21775 3.5008L7.21561 3.50322L7.96482 4.16556ZM14.5837 3.75667L13.9226 4.50694L13.9243 4.50843L14.5837 3.75667ZM15.0011 10.367L14.2524 9.70411L14.2521 9.70446L15.0011 10.367ZM14.6093 10.81L13.8603 10.1474L12.9378 11.1902L14.2206 11.7314L14.6093 10.81ZM15.1544 11.04L15.5437 10.1189L15.5431 10.1186L15.1544 11.04ZM16.8667 12.0111L17.4781 11.2198L17.4662 11.2106L17.4541 11.2018L16.8667 12.0111ZM16.9519 12.6074L16.1606 11.996L16.1446 12.0167L16.1297 12.0382L16.9519 12.6074ZM16.3556 12.6926L15.7541 13.4915L15.777 13.5087L15.8009 13.5246L16.3556 12.6926ZM13.8426 11.4319L14.1209 10.4714L14.109 10.4679L14.0971 10.4648L13.8426 11.4319ZM13.6807 11.3893L13.9352 10.4222L13.5838 10.3297L13.2549 10.4844L13.6807 11.3893ZM13.5359 11.4574L13.1101 10.5525L13.0985 10.5582L13.5359 11.4574ZM9.46407 11.4659L9.01686 12.3604L9.02427 12.3641L9.03174 12.3676L9.46407 11.4659ZM9.31074 11.3893L9.75796 10.4948L9.39576 10.3137L9.00961 10.4357L9.31074 11.3893ZM9.14889 11.4404L9.43892 12.3975L9.45002 12.394L9.14889 11.4404ZM3.45852 18.2637L4.44935 18.3988L4.45083 18.3879L4.45208 18.377L3.45852 18.2637ZM3.43296 18.4511L2.44213 18.316L2.38029 18.7695L2.68312 19.1127L3.43296 18.4511ZM3.56074 18.5959L2.81088 19.2576L2.81535 19.2626L3.56074 18.5959ZM11.5 22.1481V23.1481H11.5078L11.5156 23.148L11.5 22.1481ZM13.1356 22.0033V21.0033H13.0567L12.9788 21.0157L13.1356 22.0033ZM13.6296 22.3781L14.6196 22.2367L14.6184 22.2284L14.6171 22.2202L13.6296 22.3781ZM13.553 22.7019L14.3617 23.29L14.3617 23.29L13.553 22.7019ZM13.2719 22.8722L13.4012 23.8638L13.4126 23.8623L13.4239 23.8606L13.2719 22.8722ZM22.2844 14.5581V15.5581H22.4467L22.6007 15.5068L22.2844 14.5581ZM22.1141 14.5922L22.5037 15.5132L22.5329 15.5008L22.5613 15.4866L22.1141 14.5922ZM22.31 14.5496V13.5496H22.1477L21.9938 13.6009L22.31 14.5496ZM22.54 14.6178L23.1212 13.804L23.0961 13.7861L23.07 13.7698L22.54 14.6178ZM22.7274 16.6111H21.7274L21.7274 16.6146L22.7274 16.6111ZM19.2519 22.5059L19.7096 23.395L19.721 23.3892L19.7322 23.383L19.2519 22.5059ZM18.3915 22.9489L17.9337 22.0598L17.9143 22.0698L17.8953 22.0807L18.3915 22.9489ZM18.2126 23L18.0886 23.9923L18.1503 24H18.2126V23ZM18.0167 22.9404L17.5658 23.833L17.5694 23.8348L18.0167 22.9404ZM17.1733 22.5144L16.6988 23.3947L16.7106 23.401L16.7225 23.4071L17.1733 22.5144ZM13.6807 14.7881L14.5752 15.2354L14.5897 15.2062L14.6024 15.1762L13.6807 14.7881ZM14.2344 14.5581L14.6456 13.6466L14.5991 13.6256L14.5507 13.6095L14.2344 14.5581ZM17.8463 14.0385L18.4927 14.8015L18.5041 14.7918L18.5153 14.7818L17.8463 14.0385ZM18.4426 14.0215L19.0967 13.2651L19.0771 13.2481L19.0565 13.2321L18.4426 14.0215ZM21.85 15.6059H22.85V14.4388L21.6967 14.6178L21.85 15.6059ZM21.3559 15.6826L21.2026 14.6944L21.1979 14.6952L21.3559 15.6826ZM18.383 15.0522L18.9305 14.2154L18.9232 14.2106L18.9158 14.206L18.383 15.0522ZM18.153 14.9074L18.6858 14.0612L18.153 13.7257L17.6201 14.0612L18.153 14.9074ZM17.923 15.0522L17.3901 14.206L17.3827 14.2107L17.923 15.0522ZM14.967 15.6826L15.125 14.6951L15.123 14.6948L14.967 15.6826ZM14.4815 15.6059L14.6374 14.6182L13.4815 14.4356V15.6059H14.4815ZM14.4815 16.6111L15.4815 16.6151V16.6111H14.4815ZM17.5567 21.7563L18.033 20.877L18.0275 20.8741L17.5567 21.7563ZM17.9656 21.9778L17.4893 22.8571L17.4893 22.8571L17.9656 21.9778ZM18.17 22.0885L17.6937 22.9678L18.17 23.2258L18.6463 22.9678L18.17 22.0885ZM18.3744 21.9778L18.8507 22.8571L18.8507 22.8571L18.3744 21.9778ZM18.7833 21.7563L18.3095 20.8757L18.307 20.877L18.7833 21.7563ZM24 11.5C24 4.60994 18.3901 -1 11.5 -1V1C17.2855 1 22 5.71451 22 11.5H24ZM23.5292 12.3491L23.5547 12.332L22.4453 10.668L22.4197 10.685L23.5292 12.3491ZM23.9744 12.403V11.517H21.9744V12.403H23.9744ZM22.5144 13.7948C23.2335 13.7948 23.91 13.279 23.9715 12.4797L21.9774 12.3263C21.9895 12.1688 22.0651 12.0251 22.1782 11.9269C22.2906 11.8293 22.4168 11.7948 22.5144 11.7948V13.7948ZM21.4509 13.2747C21.7302 13.6161 22.0911 13.7415 22.3624 13.7832L22.6665 11.8064C22.6876 11.8097 22.7391 11.82 22.8041 11.8525C22.8734 11.8872 22.9425 11.9395 22.9988 12.0082L21.4509 13.2747ZM21.1243 12.2335C21.1033 12.5914 21.1929 12.9594 21.4509 13.2747L22.9988 12.0083C23.0401 12.0588 23.0778 12.1252 23.1006 12.2019C23.1222 12.2751 23.1221 12.33 23.1209 12.3509L21.1243 12.2335ZM21.1226 11.5085V12.2922H23.1226V11.5085H21.1226ZM19.9256 6.87008C20.7062 8.29221 21.1226 9.89885 21.1226 11.5085H23.1226C23.1226 9.55744 22.619 7.62038 21.6788 5.9077L19.9256 6.87008ZM11.4659 1.87741C14.9863 1.87741 18.2285 3.79206 19.9265 6.87173L21.6779 5.90604C19.6278 2.18794 15.7145 -0.122593 11.4659 -0.122593V1.87741ZM6.82061 3.07349C8.24796 2.28652 9.85361 1.87741 11.4659 1.87741V-0.122593C9.5175 -0.122593 7.57944 0.37126 5.85495 1.32206L6.82061 3.07349ZM2.21272 8.83939C2.93122 6.35942 4.5654 4.31694 6.82062 3.07349L5.85494 1.32207C3.13534 2.82157 1.15767 5.29391 0.291721 8.28284L2.21272 8.83939ZM3.03089 16.1794C1.78734 13.924 1.49447 11.3185 2.21272 8.83939L0.291721 8.28284C-0.574475 11.2726 -0.219932 14.4256 1.27948 17.1451L3.03089 16.1794ZM3.5157 17.0554L3.03014 16.178L1.28023 17.1464L1.76578 18.0238L3.5157 17.0554ZM1.98366 16.2812L1.68551 17.2438L3.59597 17.8355L3.89412 16.8729L1.98366 16.2812ZM7.41019 10.1278C4.79445 11.303 2.82524 13.5484 1.98318 16.2827L3.8946 16.8714C4.56883 14.682 6.14333 12.8896 8.22982 11.9522L7.41019 10.1278ZM7.93656 9.89011L7.40841 10.1286L8.23159 11.9514L8.75973 11.7129L7.93656 9.89011ZM7.21498 11.0287L7.59831 11.4631L9.09799 10.1399L8.71465 9.70542L7.21498 11.0287ZM7.21561 3.50322C5.32152 5.64571 5.32366 8.87896 7.21403 11.0276L8.7156 9.70649C7.48819 8.31141 7.49033 6.21207 8.71402 4.8279L7.21561 3.50322ZM11.483 1.58111C9.84867 1.58111 8.30001 2.28455 7.21776 3.5008L8.71188 4.83031C9.41851 4.03619 10.4254 3.58111 11.483 3.58111V1.58111ZM15.2448 3.0064C14.2033 2.08862 12.8698 1.58111 11.483 1.58111V3.58111C12.3791 3.58111 13.2434 3.90842 13.9226 4.50694L15.2448 3.0064ZM15.7498 11.03C17.8294 8.68138 17.6019 5.07397 15.2431 3.00491L13.9243 4.50843C15.45 5.84677 15.5973 8.18529 14.2524 9.70411L15.7498 11.03ZM15.3583 11.4726L15.7501 11.0296L14.2521 9.70446L13.8603 10.1474L15.3583 11.4726ZM15.5431 10.1186L14.998 9.88864L14.2206 11.7314L14.7657 11.9614L15.5431 10.1186ZM17.4541 11.2018C16.868 10.7764 16.2226 10.4057 15.5437 10.1189L14.7652 11.9611C15.2959 12.1854 15.809 12.4791 16.2793 12.8204L17.4541 11.2018ZM17.7431 13.2189C18.2484 12.565 18.0725 11.6791 17.4781 11.2198L16.2552 12.8024C16.0356 12.6327 15.9449 12.275 16.1606 11.996L17.7431 13.2189ZM16.6111 13.7778C17.035 13.7778 17.4886 13.5889 17.774 13.1766L16.1297 12.0382C16.2617 11.8474 16.4598 11.7778 16.6111 11.7778V13.7778ZM15.8009 13.5246C15.9889 13.65 16.2647 13.7778 16.6111 13.7778V11.7778C16.7701 11.7778 16.8756 11.8374 16.9103 11.8605L15.8009 13.5246ZM13.5643 12.3924C14.3565 12.6219 15.0908 12.9921 15.7541 13.4915L16.957 11.8937C16.104 11.2516 15.1516 10.77 14.1209 10.4714L13.5643 12.3924ZM13.4262 12.3563L13.5881 12.3989L14.0971 10.4648L13.9352 10.4222L13.4262 12.3563ZM13.9617 12.3622L14.1065 12.2941L13.2549 10.4844L13.1101 10.5526L13.9617 12.3622ZM11.4574 12.9259C12.3448 12.9259 13.202 12.7319 13.9734 12.3566L13.0985 10.5582C12.6091 10.7963 12.0522 10.9259 11.4574 10.9259V12.9259ZM9.03174 12.3676C9.78333 12.728 10.6206 12.9259 11.4574 12.9259V10.9259C10.9312 10.9259 10.3885 10.8002 9.8964 10.5642L9.03174 12.3676ZM8.86353 12.2837L9.01686 12.3604L9.91129 10.5715L9.75796 10.4948L8.86353 12.2837ZM9.45002 12.394L9.61187 12.3428L9.00961 10.4357L8.84776 10.4868L9.45002 12.394ZM4.45208 18.377C4.77314 15.5621 6.72832 13.2188 9.4389 12.3974L8.85888 10.4833C5.38501 11.536 2.87649 14.5423 2.46496 18.1504L4.45208 18.377ZM4.42379 18.5862L4.44935 18.3988L2.46769 18.1286L2.44213 18.316L4.42379 18.5862ZM4.31058 17.9343L4.1828 17.7895L2.68312 19.1127L2.8109 19.2575L4.31058 17.9343ZM11.5 21.1481C8.75252 21.1481 6.13566 19.975 4.30613 17.9293L2.81535 19.2626C5.0236 21.7317 8.1823 23.1481 11.5 23.1481V21.1481ZM12.9788 21.0157C12.4851 21.0941 11.9787 21.1405 11.4844 21.1483L11.5156 23.148C12.1117 23.1387 12.7126 23.083 13.2923 22.991L12.9788 21.0157ZM13.2037 21.0033H13.1356V23.0033H13.2037V21.0033ZM14.6171 22.2202C14.5109 21.5565 13.9421 21.0033 13.2037 21.0033V23.0033C12.8913 23.0033 12.6802 22.7738 12.6422 22.5361L14.6171 22.2202ZM14.3617 23.29C14.5931 22.9718 14.6709 22.5956 14.6196 22.2367L12.6397 22.5196C12.632 22.4659 12.6318 22.3972 12.6498 22.3205C12.6681 22.243 12.7015 22.1724 12.7442 22.1137L14.3617 23.29ZM13.4239 23.8606C13.7882 23.8046 14.1309 23.6073 14.3617 23.29L12.7442 22.1137C12.8387 21.9838 12.977 21.9058 13.1198 21.8839L13.4239 23.8606ZM11.5 24C12.144 24 12.7856 23.9441 13.4012 23.8638L13.1425 21.8806C12.5825 21.9537 12.0316 22 11.5 22V24ZM-1 11.5C-1 18.3901 4.60994 24 11.5 24V22C5.71451 22 1 17.2855 1 11.5H-1ZM11.5 -1C4.60994 -1 -1 4.60994 -1 11.5H1C1 5.71451 5.71451 1 11.5 1V-1ZM8.66667 7.24074C8.66667 5.68043 9.93969 4.40741 11.5 4.40741V2.40741C8.83512 2.40741 6.66667 4.57586 6.66667 7.24074H8.66667ZM11.5 10.0741C9.93969 10.0741 8.66667 8.80105 8.66667 7.24074H6.66667C6.66667 9.90562 8.83512 12.0741 11.5 12.0741V10.0741ZM14.3333 7.24074C14.3333 8.80105 13.0603 10.0741 11.5 10.0741V12.0741C14.1649 12.0741 16.3333 9.90562 16.3333 7.24074H14.3333ZM11.5 4.40741C13.0603 4.40741 14.3333 5.68043 14.3333 7.24074H16.3333C16.3333 4.57586 14.1649 2.40741 11.5 2.40741V4.40741ZM22.2844 13.5581C22.1432 13.5581 21.9103 13.576 21.6669 13.6978L22.5613 15.4866C22.42 15.5573 22.3064 15.5581 22.2844 15.5581V13.5581ZM21.9938 13.6009L21.9682 13.6095L22.6007 15.5068L22.6262 15.4983L21.9938 13.6009ZM23.07 13.7698C22.8638 13.6409 22.6058 13.5496 22.31 13.5496V15.5496C22.1846 15.5496 22.0799 15.5095 22.01 15.4658L23.07 13.7698ZM23.7274 14.9841C23.7274 14.5236 23.5092 14.0812 23.1212 13.804L21.9588 15.4315C21.8093 15.3248 21.7274 15.1549 21.7274 14.9841H23.7274ZM23.7274 16.6111V14.9841H21.7274V16.6111H23.7274ZM19.7322 23.383C22.2001 22.0315 23.7372 19.4363 23.7274 16.6077L21.7274 16.6146C21.7347 18.7096 20.5969 20.6292 18.7715 21.6288L19.7322 23.383ZM18.8492 23.838L19.7096 23.395L18.7941 21.6168L17.9337 22.0598L18.8492 23.838ZM18.2126 24C18.4507 24 18.6886 23.9309 18.8876 23.8171L17.8953 22.0807C17.9435 22.0531 17.9898 22.0351 18.0329 22.0232C18.0736 22.012 18.1339 22 18.2126 22V24ZM17.5694 23.8348C17.7421 23.9211 17.9114 23.9701 18.0886 23.9923L18.3366 22.0077C18.3499 22.0094 18.3734 22.0134 18.402 22.0219C18.4305 22.0305 18.4519 22.04 18.4639 22.0459L17.5694 23.8348ZM16.7225 23.4071L17.5658 23.833L18.4675 22.0478L17.6242 21.6218L16.7225 23.4071ZM12.6467 16.6111C12.6467 19.4493 14.1945 22.0447 16.6988 23.3947L17.6478 21.6342C15.7907 20.6331 14.6467 18.7137 14.6467 16.6111H12.6467ZM12.6467 14.95V16.6111H14.6467V14.95H12.6467ZM12.7863 14.3409C12.668 14.5776 12.6467 14.806 12.6467 14.95H14.6467C14.6467 14.9781 14.6445 15.0145 14.6361 15.0579C14.6279 15.1006 14.6112 15.1633 14.5752 15.2354L12.7863 14.3409ZM14.0726 13.5241C13.4912 13.5241 12.98 13.8755 12.7591 14.4001L14.6024 15.1762C14.5178 15.3771 14.3133 15.5241 14.0726 15.5241V13.5241ZM14.5507 13.6095C14.5152 13.5976 14.3173 13.5241 14.0726 13.5241V15.5241C14.0052 15.5241 13.9527 15.5141 13.9233 15.5071C13.9096 15.5038 13.901 15.5011 13.9005 15.501C13.9002 15.5009 13.9011 15.5012 13.9042 15.5022C13.9076 15.5033 13.9114 15.5046 13.9182 15.5068L14.5507 13.6095ZM15.6144 13.8478C15.269 13.8478 14.9418 13.7802 14.6456 13.6466L13.8233 15.4697C14.396 15.728 15.0059 15.8478 15.6144 15.8478V13.8478ZM17.1999 13.2755C16.7713 13.6387 16.2009 13.8478 15.6144 13.8478V15.8478C16.6635 15.8478 17.6947 15.4776 18.4927 14.8015L17.1999 13.2755ZM18.153 12.9278C17.8435 12.9278 17.4791 13.0236 17.1773 13.2952L18.5153 14.7818C18.3838 14.9001 18.241 14.9278 18.153 14.9278V12.9278ZM19.0565 13.2321C18.7877 13.023 18.464 12.9278 18.153 12.9278V14.9278C18.0634 14.9278 17.9442 14.9007 17.8286 14.8108L19.0565 13.2321ZM20.7341 13.8733C20.1312 13.8733 19.5456 13.6533 19.0967 13.2651L17.7884 14.7778C18.6004 15.4801 19.6503 15.8733 20.7341 15.8733V13.8733ZM21.7244 13.6713C21.4037 13.8069 21.0761 13.8733 20.7341 13.8733V15.8733C21.3461 15.8733 21.9385 15.7523 22.5037 15.5132L21.7244 13.6713ZM20.85 16.1V16.6111H22.85V16.1H20.85ZM20.85 15.6059V16.1H22.85V15.6059H20.85ZM21.5093 16.6708L22.0033 16.5941L21.6967 14.6178L21.2026 14.6944L21.5093 16.6708ZM20.7085 16.7337C20.973 16.7337 21.2473 16.7127 21.5139 16.67L21.1979 14.6952C21.0386 14.7206 20.87 14.7337 20.7085 14.7337V16.7337ZM17.8354 15.889C18.696 16.4521 19.6972 16.7337 20.7085 16.7337V14.7337C20.0672 14.7337 19.45 14.5553 18.9305 14.2154L17.8354 15.889ZM17.6201 15.7536L17.8501 15.8985L18.9158 14.206L18.6858 14.0612L17.6201 15.7536ZM18.4558 15.8985L18.6858 15.7536L17.6201 14.0612L17.3902 14.206L18.4558 15.8985ZM15.6059 16.7337C16.626 16.7337 17.6139 16.439 18.4632 15.8937L17.3827 14.2107C16.8521 14.5514 16.2385 14.7337 15.6059 14.7337V16.7337ZM14.809 16.67C15.0736 16.7124 15.3394 16.7337 15.6059 16.7337V14.7337C15.4465 14.7337 15.2864 14.721 15.125 14.6952L14.809 16.67ZM14.3255 16.5937L14.8111 16.6704L15.123 14.6948L14.6374 14.6182L14.3255 16.5937ZM15.4815 16.6111V15.6059H13.4815V16.6111H15.4815ZM18.0275 20.8741C16.4539 20.0343 15.4744 18.3985 15.4815 16.6151L13.4815 16.6072C13.4715 19.1341 14.8602 21.4508 17.0859 22.6385L18.0275 20.8741ZM18.4418 21.0985L18.033 20.877L17.0804 22.6356L17.4893 22.8571L18.4418 21.0985ZM18.6463 21.2092L18.4418 21.0985L17.4893 22.8571L17.6937 22.9678L18.6463 21.2092ZM17.8982 21.0985L17.6937 21.2092L18.6463 22.9678L18.8507 22.8571L17.8982 21.0985ZM18.307 20.877L17.8982 21.0985L18.8507 22.8571L19.2596 22.6356L18.307 20.877ZM20.85 16.6111C20.85 18.4009 19.8828 20.0291 18.3095 20.8757L19.2572 22.6369C21.4832 21.4391 22.85 19.1317 22.85 16.6111H20.85Z" fill="#C3B0EA" mask="url(#path-1-inside-1_546_88)"/>
</svg>
