<svg width="49" height="49" viewBox="0 0 49 49" fill="none" xmlns="http://www.w3.org/2000/svg">
<g clip-path="url(#clip0_1224_57)">
<path d="M28.8559 16.0212V12.0212C28.8559 10.9604 28.4345 9.94296 27.6843 9.19281C26.9342 8.44267 25.9168 8.02124 24.8559 8.02124H10.8559C9.79503 8.02124 8.77761 8.44267 8.02747 9.19281C7.27732 9.94296 6.8559 10.9604 6.8559 12.0212V36.0212C6.8559 37.0821 7.27732 38.0995 8.02747 38.8497C8.77761 39.5998 9.79503 40.0212 10.8559 40.0212H24.8559C25.9168 40.0212 26.9342 39.5998 27.6843 38.8497C28.4345 38.0995 28.8559 37.0821 28.8559 36.0212V32.0212" stroke="#FF0178" stroke-width="2" stroke-linecap="round" stroke-linejoin="round"/>
<path d="M14.8559 24.0212H42.8559M42.8559 24.0212L36.8559 18.0212M42.8559 24.0212L36.8559 30.0212" stroke="#FF0178" stroke-width="2" stroke-linecap="round" stroke-linejoin="round"/>
</g>
<defs>
<clipPath id="clip0_1224_57">
<rect width="48" height="48" fill="white" transform="translate(0.855896 0.0212402)"/>
</clipPath>
</defs>
</svg>
