<svg width="48" height="48" viewBox="0 0 48 48" fill="none" xmlns="http://www.w3.org/2000/svg">
<g clip-path="url(#clip0_1213_28)">
<path d="M46.2 0H31.8C30.8112 0 29.4264 0.717 28.728 1.59L10.8744 23.907C10.1736 24.783 10.1736 26.214 10.8744 27.09L26.328 46.407C27.0288 47.283 28.1736 47.283 28.8744 46.407L46.728 24.09C47.4288 23.214 48 21.486 48 20.25V2.25C48 1.014 47.1912 0 46.2 0ZM37.2 18C35.2128 18 33.6 15.984 33.6 13.5C33.6 11.016 35.2128 9 37.2 9C39.1872 9 40.8 11.016 40.8 13.5C40.8 15.984 39.1872 18 37.2 18Z" fill="#FF0178"/>
<path d="M4.79998 25.5L25.2 0H22.2C21.2112 0 19.8264 0.717 19.128 1.59L1.27438 23.907C0.573579 24.783 0.573579 26.214 1.27438 27.09L16.728 46.407C17.4288 47.283 18.5736 47.283 19.2744 46.407L20.4024 44.997L4.80238 25.497L4.79998 25.5Z" fill="#FF0178"/>
</g>
<defs>
<clipPath id="clip0_1213_28">
<rect width="48" height="48" fill="white"/>
</clipPath>
</defs>
</svg>
