<svg width="59" height="36" viewBox="0 0 59 36" fill="none" xmlns="http://www.w3.org/2000/svg">
<g filter="url(#filter0_d_524_195)">
<g filter="url(#filter1_d_524_195)">
<path d="M36.206 15.316C36.0353 14.7733 35.5387 14.3902 34.9801 14.3902H31.737L30.7439 11.2139C30.5732 10.6552 30.0766 10.2881 29.518 10.2881C28.9594 10.2881 28.4628 10.6552 28.2922 11.2139L27.2835 14.3902H24.0404C23.4818 14.3902 22.9853 14.7574 22.8146 15.316C22.6439 15.8747 22.8146 16.4653 23.2801 16.8005L25.9025 18.7637L24.9094 21.9401C24.7387 22.4828 24.9094 23.0894 25.3749 23.4246C25.8249 23.7598 26.4456 23.7598 26.8956 23.4246L29.518 21.4613L32.1404 23.4246C32.3732 23.6001 32.637 23.6799 32.9008 23.6799C33.1646 23.6799 33.4284 23.6001 33.6611 23.4246C34.1111 23.0894 34.3128 22.4828 34.1266 21.9401L33.1335 18.7637L35.756 16.8005C36.206 16.4653 36.4077 15.8587 36.2215 15.316H36.206ZM32.0473 17.5985C31.5973 17.9337 31.3956 18.5403 31.5818 19.083L32.4042 21.6688L30.2628 20.0726C30.0301 19.897 29.7663 19.8172 29.5025 19.8172C29.2387 19.8172 28.9749 19.897 28.7422 20.0726L26.6008 21.6688L27.4232 19.083C27.5939 18.5243 27.4232 17.9337 26.9577 17.5985L24.8163 16.0024H27.4542C28.0284 16.0024 28.5094 15.6353 28.6801 15.0766L29.5025 12.4908L30.3249 15.0766C30.4956 15.6193 30.9922 16.0024 31.5508 16.0024H34.1887L32.0473 17.5985Z" fill="white"/>
<path d="M26.9852 23.5449L26.9855 23.5446L29.518 21.6487L32.0501 23.5443C32.0502 23.5444 32.0503 23.5444 32.0504 23.5445C32.3102 23.7404 32.606 23.8299 32.9008 23.8299C33.1956 23.8299 33.4913 23.7405 33.7511 23.5446C34.2508 23.1721 34.4761 22.4992 34.2692 21.8934L33.3084 18.8202L35.8456 16.9208C35.8457 16.9207 35.8458 16.9206 35.8458 16.9205C36.3462 16.5476 36.5714 15.8737 36.3633 15.2673L36.3286 15.166H36.3117C36.0943 14.6204 35.5711 14.2402 34.9801 14.2402H31.8472L30.8873 11.17C30.8873 11.1698 30.8872 11.1696 30.8872 11.1694C30.6975 10.5497 30.1441 10.1381 29.518 10.1381C28.892 10.1381 28.3386 10.5496 28.1489 11.1692L27.1738 14.2402H24.0404C23.4142 14.2402 22.8606 14.6521 22.6711 15.2722C22.4838 15.8852 22.6691 16.5446 23.1913 16.9213L25.7277 18.8202L24.7663 21.8951C24.7663 21.8952 24.7663 21.8952 24.7663 21.8953C24.5783 22.4931 24.764 23.1688 25.2863 23.5456C25.7894 23.9197 26.4824 23.9194 26.9852 23.5449ZM28.6518 19.9529L26.8851 21.2698L27.5661 19.1284L27.5661 19.1284L27.5666 19.1268C27.754 18.5137 27.5686 17.8543 27.0463 17.4775L25.2685 16.1524H27.4542C28.0968 16.1524 28.6339 15.7399 28.8233 15.1213L29.5025 12.9857L30.1818 15.1216C30.1819 15.1217 30.1819 15.1218 30.1819 15.1219C30.3711 15.7229 30.9227 16.1524 31.5508 16.1524H33.7365L31.9577 17.4782C31.9577 17.4783 31.9577 17.4783 31.9577 17.4783C31.4576 17.8508 31.2323 18.524 31.4394 19.13L32.1199 21.2698L30.3532 19.9529C30.3531 19.9528 30.353 19.9527 30.3529 19.9526C30.093 19.7567 29.7973 19.6672 29.5025 19.6672C29.2077 19.6672 28.912 19.7567 28.6521 19.9526C28.652 19.9527 28.6519 19.9528 28.6518 19.9529Z" stroke="#FEEC5C" stroke-width="0.3"/>
</g>
<g filter="url(#filter2_d_524_195)">
<path d="M51.2268 10.2881H36.6871C34.9026 8.27694 32.3578 7 29.5026 7C26.6475 7 24.1026 8.27694 22.3181 10.2881H7.77849C7.49918 10.2881 7.23539 10.4477 7.09573 10.7031C6.95608 10.9585 6.97159 11.2777 7.12677 11.5172L8.83366 14.1508C9.37677 14.9808 10.2147 15.5235 11.1302 15.7151L12.6664 18.0934C13.2095 18.9234 14.0475 19.4661 14.963 19.6576L16.4992 22.0359C17.1819 23.0734 18.3147 23.6959 19.525 23.6959H22.3026C24.0871 25.7071 26.6319 26.984 29.4871 26.984C32.3423 26.984 34.8871 25.7071 36.6716 23.6959H39.4492C40.6595 23.6959 41.7923 23.0734 42.4906 22.02L44.0268 19.6576C44.9578 19.4661 45.7802 18.9074 46.3233 18.0774L47.8595 15.7151C48.7906 15.5235 49.613 14.9649 50.1561 14.1349L51.8475 11.5012C52.0026 11.2618 52.0181 10.9425 51.8785 10.6872C51.7388 10.4318 51.475 10.2721 51.1957 10.2721L51.2268 10.2881ZM10.1216 13.2729L9.22159 11.8843H21.1699C20.7509 12.6185 20.4095 13.4006 20.1768 14.2306H11.875C11.1768 14.2306 10.525 13.8635 10.1371 13.2729H10.1216ZM13.9544 17.2155L13.0544 15.8268H19.8509C19.8044 16.2099 19.7733 16.6089 19.7733 17.008C19.7733 17.407 19.8044 17.7901 19.8509 18.1891H15.6923C14.994 18.1891 14.3423 17.822 13.9544 17.2314V17.2155ZM19.5406 22.1157C18.8423 22.1157 18.1906 21.7486 17.8026 21.158L16.9026 19.7694H20.1768C20.4095 20.5994 20.7509 21.3815 21.1699 22.1157H19.5406ZM29.5026 25.4038C25.0026 25.4038 21.3406 21.6369 21.3406 17.008C21.3406 12.3791 25.0026 8.59617 29.5026 8.59617C34.0026 8.59617 37.6802 12.3631 37.6802 16.992C37.6802 21.6209 34.0181 25.3879 29.5026 25.3879V25.4038ZM41.2181 21.158C40.8147 21.7646 40.163 22.1157 39.4647 22.1157H37.8354C38.2544 21.3815 38.5957 20.5994 38.8285 19.7694H42.1026L41.2026 21.158H41.2181ZM45.0509 17.2155C44.6475 17.822 43.9957 18.1732 43.2975 18.1732H39.1388C39.1854 17.7901 39.2164 17.3911 39.2164 16.992C39.2164 16.593 39.1854 16.2099 39.1388 15.8109H45.9354L45.0354 17.1995L45.0509 17.2155ZM48.8837 13.2729C48.4802 13.8795 47.8285 14.2306 47.1302 14.2306H38.8285C38.5957 13.4006 38.2544 12.6185 37.8354 11.8843H49.7681L48.8681 13.2729H48.8837Z" fill="white"/>
<path d="M51.1957 10.1221L51.1919 10.1381H36.7543C34.946 8.12663 32.3802 6.85 29.5026 6.85C26.6251 6.85 24.0592 8.12663 22.251 10.1381H7.77849C7.44195 10.1381 7.12892 10.3298 6.96412 10.6311C6.79761 10.9356 6.81622 11.3138 7.00089 11.5987L8.70779 14.2324L8.70814 14.233C9.26161 15.0788 10.109 15.638 11.0378 15.8485L12.5404 18.1748L12.5409 18.1755C13.0944 19.0214 13.9417 19.5805 14.8706 19.791L16.3732 22.1173L16.3739 22.1184C17.0834 23.1966 18.2625 23.8459 19.525 23.8459H22.2355C24.0437 25.8574 26.6095 27.134 29.4871 27.134C32.3647 27.134 34.9305 25.8574 36.7387 23.8459H39.4492C40.7122 23.8459 41.8909 23.1962 42.6156 22.1028L42.6163 22.1017L44.1188 19.7913C45.0643 19.5799 45.8963 19.0039 46.4488 18.1595L46.4491 18.1592L47.9515 15.8487C48.897 15.6373 49.7291 15.0614 50.2816 14.217L50.2823 14.2159L51.9733 11.5828C52.158 11.2978 52.1766 10.9197 52.0101 10.6152C51.8453 10.3138 51.5323 10.1221 51.1957 10.1221ZM10.2625 13.1906L10.218 13.1229H10.2031L9.49756 12.0343H20.9148C20.5649 12.6798 20.2744 13.362 20.0637 14.0806H11.875C11.2298 14.0806 10.6241 13.7411 10.2625 13.1906ZM15.6923 18.0391C15.0615 18.0391 14.4685 17.7147 14.1044 17.1857V17.1711L14.0802 17.1339L13.3303 15.9768H19.6827C19.6465 16.3126 19.6233 16.6598 19.6233 17.008C19.6233 17.3582 19.6468 17.6954 19.6832 18.0391H15.6923ZM29.3526 25.2524C25.0082 25.1698 21.4906 21.5064 21.4906 17.008C21.4906 12.4575 25.0898 8.74617 29.5026 8.74617C33.9162 8.74617 37.5302 12.4423 37.5302 16.992C37.5302 21.5419 33.9315 25.2379 29.5026 25.2379H29.3526V25.2524ZM41.0768 21.0764L40.9678 21.2446C40.5897 21.7053 40.0437 21.9657 39.4647 21.9657H38.0905C38.4404 21.3202 38.7308 20.638 38.9415 19.9194H41.8267L41.0768 21.0764ZM44.9095 17.1179L44.8445 17.2183L44.8565 17.2307C44.4775 17.7358 43.9056 18.0232 43.2975 18.0232H39.307C39.3432 17.6874 39.3664 17.3402 39.3664 16.992C39.3664 16.6418 39.343 16.3046 39.3065 15.9609H45.6594L44.9095 17.1179ZM48.7423 13.1914L48.6333 13.3595C48.2552 13.8202 47.7092 14.0806 47.1302 14.0806H38.9415C38.7308 13.362 38.4404 12.6798 38.0905 12.0343H49.4922L48.7423 13.1914ZM19.5406 21.9657C18.8955 21.9657 18.2899 21.6264 17.9283 21.0761C17.9282 21.0759 17.9281 21.0758 17.928 21.0757L17.1786 19.9194H20.0637C20.2744 20.638 20.5649 21.3202 20.9148 21.9657H19.5406Z" stroke="#FEEC5C" stroke-width="0.3"/>
</g>
</g>
<defs>
<filter id="filter0_d_524_195" x="2.69999" y="6.70001" width="53.5742" height="28.584" filterUnits="userSpaceOnUse" color-interpolation-filters="sRGB">
<feFlood flood-opacity="0" result="BackgroundImageFix"/>
<feColorMatrix in="SourceAlpha" type="matrix" values="0 0 0 0 0 0 0 0 0 0 0 0 0 0 0 0 0 0 127 0" result="hardAlpha"/>
<feOffset dy="4"/>
<feGaussianBlur stdDeviation="2"/>
<feComposite in2="hardAlpha" operator="out"/>
<feColorMatrix type="matrix" values="0 0 0 0 0 0 0 0 0 0 0 0 0 0 0 0 0 0 0.25 0"/>
<feBlend mode="normal" in2="BackgroundImageFix" result="effect1_dropShadow_524_195"/>
<feBlend mode="normal" in="SourceGraphic" in2="effect1_dropShadow_524_195" result="shape"/>
</filter>
<filter id="filter1_d_524_195" x="16.15" y="3.6881" width="26.7406" height="26.5919" filterUnits="userSpaceOnUse" color-interpolation-filters="sRGB">
<feFlood flood-opacity="0" result="BackgroundImageFix"/>
<feColorMatrix in="SourceAlpha" type="matrix" values="0 0 0 0 0 0 0 0 0 0 0 0 0 0 0 0 0 0 127 0" result="hardAlpha"/>
<feOffset/>
<feGaussianBlur stdDeviation="3.15"/>
<feComposite in2="hardAlpha" operator="out"/>
<feColorMatrix type="matrix" values="0 0 0 0 0.996078 0 0 0 0 0.92549 0 0 0 0 0.360784 0 0 0 1 0"/>
<feBlend mode="normal" in2="BackgroundImageFix" result="effect1_dropShadow_524_195"/>
<feBlend mode="normal" in="SourceGraphic" in2="effect1_dropShadow_524_195" result="shape"/>
</filter>
<filter id="filter2_d_524_195" x="0.399994" y="0.400012" width="58.1742" height="33.184" filterUnits="userSpaceOnUse" color-interpolation-filters="sRGB">
<feFlood flood-opacity="0" result="BackgroundImageFix"/>
<feColorMatrix in="SourceAlpha" type="matrix" values="0 0 0 0 0 0 0 0 0 0 0 0 0 0 0 0 0 0 127 0" result="hardAlpha"/>
<feOffset/>
<feGaussianBlur stdDeviation="3.15"/>
<feComposite in2="hardAlpha" operator="out"/>
<feColorMatrix type="matrix" values="0 0 0 0 0.996078 0 0 0 0 0.92549 0 0 0 0 0.360784 0 0 0 1 0"/>
<feBlend mode="normal" in2="BackgroundImageFix" result="effect1_dropShadow_524_195"/>
<feBlend mode="normal" in="SourceGraphic" in2="effect1_dropShadow_524_195" result="shape"/>
</filter>
</defs>
</svg>
