<svg width="23" height="23" viewBox="0 0 23 23" fill="none" xmlns="http://www.w3.org/2000/svg">
<path d="M9.20566 2.30023C7.37454 2.30023 5.61842 3.02768 4.32362 4.32255C3.02882 5.61742 2.30141 7.37364 2.30141 9.20487C2.30141 11.0361 3.02882 12.7923 4.32362 14.0872C5.61842 15.3821 7.37454 16.1095 9.20566 16.1095C11.0368 16.1095 12.7929 15.3821 14.0877 14.0872C15.3825 12.7923 16.1099 11.0361 16.1099 9.20487C16.1099 7.37364 15.3825 5.61742 14.0877 4.32255C12.7929 3.02768 11.0368 2.30023 9.20566 2.30023ZM5.68636e-08 9.20487C0.000209804 7.73977 0.350066 6.29588 1.02049 4.9932C1.69092 3.69052 2.66255 2.56667 3.85464 1.71504C5.04673 0.863421 6.42485 0.308625 7.87447 0.0967641C9.32408 -0.115097 10.8033 0.0220958 12.1893 0.49694C13.5752 0.971784 14.8278 1.77057 15.8429 2.8269C16.8581 3.88323 17.6065 5.16661 18.0259 6.57037C18.4454 7.97414 18.5238 9.45774 18.2546 10.8979C17.9853 12.338 17.3763 13.6931 16.4781 14.8506L22.677 21.0498C22.8866 21.2668 23.0026 21.5575 23 21.8592C22.9973 22.161 22.8763 22.4496 22.663 22.6629C22.4496 22.8763 22.161 22.9973 21.8593 23C21.5576 23.0026 21.2669 22.8866 21.0499 22.677L14.851 16.4777C13.4903 17.5343 11.8604 18.1877 10.1467 18.3638C8.43296 18.54 6.70424 18.2316 5.15706 17.4739C3.60989 16.7163 2.30635 15.5396 1.39469 14.0778C0.48302 12.616 -0.000191386 10.9277 5.68636e-08 9.20487Z" fill="#C3B0EA"/>
</svg>
